<svg id="Capa_1" enable-background="new 0 0 512 512" height="512" viewBox="0 0 512 512" width="512" xmlns="http://www.w3.org/2000/svg"><path d="m478.163 74.996c-17.665-14.741-40.109-23.894-64.286-26.457v-33.539c0-8.284-6.716-15-15-15h-286.995c-8.284 0-15 6.716-15 15v33.667c-23.704 2.741-45.682 11.839-63.045 26.329-21.82 18.208-33.837 42.651-33.837 68.827s12.017 50.619 33.837 68.827c20.328 16.964 46.981 26.535 75.327 27.161 17.698 42.07 53.11 74.946 96.868 89.291v62.866h-66.383c-8.284 0-15 6.716-15 15v90.032c0 8.284 6.716 15 15 15h232.701c8.284 0 15-6.716 15-15v-90.032c0-8.284-6.716-15-15-15h-66.383v-63.269c43.179-14.552 78.082-47.201 95.617-88.862 28.813-.368 55.951-9.973 76.579-27.187 21.82-18.208 33.837-42.651 33.837-68.827s-12.017-50.619-33.837-68.827zm-448.163 68.827c0-32.23 28.859-59.124 66.882-64.89v99.83c0 10.385 1.019 20.535 2.942 30.366-39.47-4.789-69.824-32.248-69.824-65.306zm327.351 338.177h-202.702v-60.032h202.701v60.032zm-81.383-90.032h-39.936v-56.186c6.343.774 12.799 1.181 19.348 1.181 6.976 0 13.847-.457 20.588-1.333zm107.909-213.205c0 70.689-57.644 128.2-128.497 128.2-70.854 0-128.498-57.51-128.498-128.2v-113.37c.15-.852.243-1.724.243-2.62 0-.895-.093-1.767-.243-2.619v-30.154h256.995zm27.033 30.496c1.939-9.872 2.967-20.066 2.967-30.496v-100.009c38.634 5.363 68.123 32.489 68.123 65.069 0 33.409-31.008 61.085-71.09 65.436z"/><path d="m199.768 167.304-6.868 39.96c-.967 5.626 1.343 11.313 5.959 14.671s10.738 3.805 15.793 1.153l35.999-18.886 35.998 18.886c2.191 1.149 4.584 1.717 6.967 1.717 3.113 0 6.212-.968 8.826-2.87 4.616-3.358 6.926-9.045 5.959-14.671l-6.868-39.96 29.099-28.306c4.096-3.983 5.572-9.948 3.809-15.382-1.764-5.435-6.461-9.395-12.115-10.215l-40.238-5.835-17.99-36.376c-2.529-5.114-7.74-8.351-13.445-8.351s-10.916 3.236-13.445 8.351l-17.99 36.376-40.239 5.835c-5.654.82-10.352 4.78-12.115 10.215-1.764 5.434-.287 11.398 3.809 15.382zm31.551-31.178c4.884-.708 9.105-3.773 11.293-8.195l8.038-16.253 8.038 16.253c2.188 4.423 6.409 7.487 11.293 8.195l17.909 2.597-12.939 12.585c-3.544 3.447-5.162 8.42-4.324 13.293l3.062 17.81-16.07-8.431c-4.365-2.29-9.574-2.29-13.938-.001l-16.071 8.432 3.062-17.811c.838-4.873-.78-9.846-4.324-13.293l-12.938-12.585z"/></svg>